<svg xmlns="http://www.w3.org/2000/svg" viewBox="0 0 1024 1024" width="1024" height="1024">
  <!-- Office Building app icon: signage red plate, a cutaway building, one lit "needs you" window. -->
  <rect x="64" y="64" width="896" height="896" rx="200" fill="#B5532B"/>
  <rect x="64" y="64" width="896" height="896" rx="200" fill="none" stroke="#8E3F1F" stroke-width="24"/>
  <g transform="translate(262 196)">
    <rect x="0" y="0" width="500" height="36" fill="#1C1F24"/>
    <rect x="18" y="36" width="464" height="600" fill="#FFFDF8"/>
    <g fill="#AFD3E6">
      <rect x="56" y="80" width="84" height="96"/><rect x="208" y="80" width="84" height="96"/><rect x="360" y="80" width="84" height="96"/>
      <rect x="56" y="224" width="84" height="96"/><rect x="360" y="224" width="84" height="96"/>
      <rect x="56" y="368" width="84" height="96"/><rect x="208" y="368" width="84" height="96"/><rect x="360" y="368" width="84" height="96"/>
    </g>
    <rect x="208" y="224" width="84" height="96" fill="#F2B33D"/>
    <rect x="200" y="512" width="100" height="124" fill="#1C1F24"/>
    <rect x="0" y="636" width="500" height="28" fill="#1C1F24"/>
  </g>
</svg>
